<svg width="517.184521484375px" height="131.6px" xmlns="http://www.w3.org/2000/svg" viewBox="-8.592260742187477 9.200000000000003 517.184521484375 131.6" style="background: rgba(0, 0, 0, 0);" preserveAspectRatio="xMidYMid"><defs><filter id="editing-hole" x="-100%" y="-100%" width="300%" height="300%"><feFlood flood-color="#000" result="black"></feFlood><feMorphology operator="dilate" radius="2" in="SourceGraphic" result="erode"></feMorphology><feGaussianBlur in="erode" stdDeviation="4" result="blur"></feGaussianBlur><feOffset in="blur" dx="2" dy="2" result="offset"></feOffset><feComposite operator="atop" in="offset" in2="black" result="merge"></feComposite><feComposite operator="in" in="merge" in2="SourceGraphic" result="inner-shadow"></feComposite></filter></defs><g filter="url(#editing-hole)"><g transform="translate(65.26657772064209, 97.43500137329102)"><path d="M28.66-22.41L51.69 0L40.16 0L21.88-18.31L16.16-18.31L16.16-26.50L21.88-26.50L40.16-44.81L51.69-44.81L28.66-22.41ZM12.91-44.81L12.91 0L4.78 0L4.78-44.81L12.91-44.81ZM91.47-22.41L91.47-11.41L91.47-11.41Q91.47-9.31 90.94-7.64L90.94-7.64L90.94-7.64Q90.41-5.97 89.53-4.70L89.53-4.70L89.53-4.70Q88.66-3.44 87.50-2.55L87.50-2.55L87.50-2.55Q86.34-1.66 85.08-1.09L85.08-1.09L85.08-1.09Q83.81-0.53 82.52-0.27L82.52-0.27L82.52-0.27Q81.22 0 80.06 0L80.06 0L65.41 0L65.41 0Q63.72 0 61.72-0.59L61.72-0.59L61.72-0.59Q59.72-1.19 58.02-2.55L58.02-2.55L58.02-2.55Q56.31-3.91 55.17-6.08L55.17-6.08L55.17-6.08Q54.03-8.25 54.03-11.41L54.03-11.41L54.03-22.41L54.03-22.41Q54.03-25.53 55.17-27.70L55.17-27.70L55.17-27.70Q56.31-29.88 58.02-31.23L58.02-31.23L58.02-31.23Q59.72-32.59 61.72-33.19L61.72-33.19L61.72-33.19Q63.72-33.78 65.41-33.78L65.41-33.78L80.06-33.78L80.06-33.78Q83.19-33.78 85.38-32.66L85.38-32.66L85.38-32.66Q87.56-31.53 88.91-29.83L88.91-29.83L88.91-29.83Q90.25-28.13 90.86-26.13L90.86-26.13L90.86-26.13Q91.47-24.13 91.47-22.41L91.47-22.41ZM83.34-11.41L83.34-22.34L83.34-22.34Q83.34-24.03 82.50-24.84L82.50-24.84L82.50-24.84Q81.66-25.66 80.06-25.66L80.06-25.66L65.47-25.66L65.47-25.66Q63.84-25.66 63-24.83L63-24.83L63-24.83Q62.16-24 62.16-22.41L62.16-22.41L62.16-11.41L62.16-11.41Q62.16-9.81 63-8.97L63-8.97L63-8.97Q63.84-8.13 65.47-8.13L65.47-8.13L80.06-8.13L80.06-8.13Q81.72-8.13 82.53-8.97L82.53-8.97L82.53-8.97Q83.34-9.81 83.34-11.41L83.34-11.41ZM127.94-33.78L127.94-25.66L109.66-25.66L109.66-25.66Q108-25.66 107.16-24.83L107.16-24.83L107.16-24.83Q106.31-24 106.31-22.41L106.31-22.41L106.31 0L98.19 0L98.19-22.41L98.19-22.41Q98.19-24.50 98.72-26.16L98.72-26.16L98.72-26.16Q99.25-27.81 100.14-29.08L100.14-29.08L100.14-29.08Q101.03-30.34 102.19-31.23L102.19-31.23L102.19-31.23Q103.34-32.13 104.61-32.69L104.61-32.69L104.61-32.69Q105.88-33.25 107.17-33.52L107.17-33.52L107.17-33.52Q108.47-33.78 109.59-33.78L109.59-33.78L127.94-33.78ZM165.94-11.41L165.94-11.41L165.94-11.41Q165.94-9.31 165.41-7.64L165.41-7.64L165.41-7.64Q164.88-5.97 164-4.70L164-4.70L164-4.70Q163.13-3.44 161.97-2.55L161.97-2.55L161.97-2.55Q160.81-1.66 159.55-1.09L159.55-1.09L159.55-1.09Q158.28-0.53 156.98-0.27L156.98-0.27L156.98-0.27Q155.69 0 154.53 0L154.53 0L132.53 0L132.53-8.13L154.47-8.13L154.47-8.13Q156.13-8.13 156.97-8.97L156.97-8.97L156.97-8.97Q157.81-9.81 157.81-11.41L157.81-11.41L157.81-11.41Q157.66-14.66 154.53-14.66L154.53-14.66L141.94-14.66L141.94-14.66Q139.25-14.66 137.38-15.59L137.38-15.59L137.38-15.59Q135.50-16.53 134.33-17.94L134.33-17.94L134.33-17.94Q133.16-19.34 132.64-20.97L132.64-20.97L132.64-20.97Q132.13-22.59 132.13-24L132.13-24L132.13-24Q132.13-26.72 133.09-28.58L133.09-28.58L133.09-28.58Q134.06-30.44 135.53-31.59L135.53-31.59L135.53-31.59Q137-32.75 138.72-33.27L138.72-33.27L138.72-33.27Q140.44-33.78 141.94-33.78L141.94-33.78L161.91-33.78L161.91-25.66L142-25.66L142-25.66Q141.38-25.66 141.02-25.52L141.02-25.52L141.02-25.52Q140.66-25.38 140.48-25.14L140.48-25.14L140.48-25.14Q140.31-24.91 140.28-24.64L140.28-24.64L140.28-24.64Q140.25-24.38 140.25-24.13L140.25-24.13L140.25-24.13Q140.28-23.63 140.44-23.34L140.44-23.34L140.44-23.34Q140.59-23.06 140.83-22.94L140.83-22.94L140.83-22.94Q141.06-22.81 141.36-22.80L141.36-22.80L141.36-22.80Q141.66-22.78 141.94-22.78L141.94-22.78L154.53-22.78L154.53-22.78Q157.66-22.78 159.84-21.66L159.84-21.66L159.84-21.66Q162.03-20.53 163.38-18.83L163.38-18.83L163.38-18.83Q164.72-17.13 165.33-15.13L165.33-15.13L165.33-15.13Q165.94-13.13 165.94-11.41ZM204.28-11.41L204.28-11.41L204.28-11.41Q204.28-9.31 203.75-7.64L203.75-7.64L203.75-7.64Q203.22-5.97 202.34-4.70L202.34-4.70L202.34-4.70Q201.47-3.44 200.31-2.55L200.31-2.55L200.31-2.55Q199.16-1.66 197.89-1.09L197.89-1.09L197.89-1.09Q196.63-0.53 195.33-0.27L195.33-0.27L195.33-0.27Q194.03 0 192.88 0L192.88 0L170.88 0L170.88-8.13L192.81-8.13L192.81-8.13Q194.47-8.13 195.31-8.97L195.31-8.97L195.31-8.97Q196.16-9.81 196.16-11.41L196.16-11.41L196.16-11.41Q196-14.66 192.88-14.66L192.88-14.66L180.28-14.66L180.28-14.66Q177.59-14.66 175.72-15.59L175.72-15.59L175.72-15.59Q173.84-16.53 172.67-17.94L172.67-17.94L172.67-17.94Q171.50-19.34 170.98-20.97L170.98-20.97L170.98-20.97Q170.47-22.59 170.47-24L170.47-24L170.47-24Q170.47-26.72 171.44-28.58L171.44-28.58L171.44-28.58Q172.41-30.44 173.88-31.59L173.88-31.59L173.88-31.59Q175.34-32.75 177.06-33.27L177.06-33.27L177.06-33.27Q178.78-33.78 180.28-33.78L180.28-33.78L200.25-33.78L200.25-25.66L180.34-25.66L180.34-25.66Q179.72-25.66 179.36-25.52L179.36-25.52L179.36-25.52Q179-25.38 178.83-25.14L178.83-25.14L178.83-25.14Q178.66-24.91 178.63-24.64L178.63-24.64L178.63-24.64Q178.59-24.38 178.59-24.13L178.59-24.13L178.59-24.13Q178.63-23.63 178.78-23.34L178.78-23.34L178.78-23.34Q178.94-23.06 179.17-22.94L179.17-22.94L179.17-22.94Q179.41-22.81 179.70-22.80L179.70-22.80L179.70-22.80Q180-22.78 180.28-22.78L180.28-22.78L192.88-22.78L192.88-22.78Q196-22.78 198.19-21.66L198.19-21.66L198.19-21.66Q200.38-20.53 201.72-18.83L201.72-18.83L201.72-18.83Q203.06-17.13 203.67-15.13L203.67-15.13L203.67-15.13Q204.28-13.13 204.28-11.41ZM276.41-26.06L276.41-18.75L276.41-18.75Q276.41-14.66 274.98-11.22L274.98-11.22L274.98-11.22Q273.56-7.78 271.06-5.30L271.06-5.30L271.06-5.30Q268.56-2.81 265.13-1.41L265.13-1.41L265.13-1.41Q261.69 0 257.66 0L257.66 0L235.72 0L235.72 0Q234.84 0 234.09-0.31L234.09-0.31L234.09-0.31Q233.34-0.63 232.80-1.17L232.80-1.17L232.80-1.17Q232.25-1.72 231.94-2.47L231.94-2.47L231.94-2.47Q231.63-3.22 231.63-4.09L231.63-4.09L231.63-40.72L231.63-40.72Q231.63-41.56 231.94-42.31L231.94-42.31L231.94-42.31Q232.25-43.06 232.80-43.63L232.80-43.63L232.80-43.63Q233.34-44.19 234.09-44.50L234.09-44.50L234.09-44.50Q234.84-44.81 235.72-44.81L235.72-44.81L257.66-44.81L257.66-44.81Q261.69-44.81 265.13-43.41L265.13-43.41L265.13-43.41Q268.56-42 271.06-39.52L271.06-39.52L271.06-39.52Q273.56-37.03 274.98-33.58L274.98-33.58L274.98-33.58Q276.41-30.13 276.41-26.06L276.41-26.06ZM268.28-18.75L268.28-26.06L268.28-26.06Q268.28-28.44 267.52-30.41L267.52-30.41L267.52-30.41Q266.75-32.38 265.34-33.77L265.34-33.77L265.34-33.77Q263.94-35.16 261.98-35.92L261.98-35.92L261.98-35.92Q260.03-36.69 257.66-36.69L257.66-36.69L239.75-36.69L239.75-8.13L257.66-8.13L257.66-8.13Q260.03-8.13 261.98-8.89L261.98-8.89L261.98-8.89Q263.94-9.66 265.34-11.05L265.34-11.05L265.34-11.05Q266.75-12.44 267.52-14.39L267.52-14.39L267.52-14.39Q268.28-16.34 268.28-18.75L268.28-18.75ZM319.81-22.59L319.81-22.59L319.81-22.59Q319.81-20.91 319.22-18.95L319.22-18.95L319.22-18.95Q318.63-17 317.30-15.33L317.30-15.33L317.30-15.33Q315.97-13.66 313.83-12.53L313.83-12.53L313.83-12.53Q311.69-11.41 308.63-11.41L308.63-11.41L293.97-11.41L293.97-19.13L308.63-19.13L308.63-19.13Q310.28-19.13 311.19-20.14L311.19-20.14L311.19-20.14Q312.09-21.16 312.09-22.66L312.09-22.66L312.09-22.66Q312.09-24.25 311.08-25.16L311.08-25.16L311.08-25.16Q310.06-26.06 308.63-26.06L308.63-26.06L293.97-26.06L293.97-26.06Q292.31-26.06 291.41-25.05L291.41-25.05L291.41-25.05Q290.50-24.03 290.50-22.53L290.50-22.53L290.50-11.19L290.50-11.19Q290.50-9.56 291.52-8.66L291.52-8.66L291.52-8.66Q292.53-7.75 294.03-7.75L294.03-7.75L308.63-7.75L308.63 0L293.97 0L293.97 0Q292.28 0 290.33-0.59L290.33-0.59L290.33-0.59Q288.38-1.19 286.70-2.52L286.70-2.52L286.70-2.52Q285.03-3.84 283.91-5.98L283.91-5.98L283.91-5.98Q282.78-8.13 282.78-11.19L282.78-11.19L282.78-22.59L282.78-22.59Q282.78-24.28 283.38-26.23L283.38-26.23L283.38-26.23Q283.97-28.19 285.30-29.86L285.30-29.86L285.30-29.86Q286.63-31.53 288.77-32.66L288.77-32.66L288.77-32.66Q290.91-33.78 293.97-33.78L293.97-33.78L308.63-33.78L308.63-33.78Q310.31-33.78 312.27-33.19L312.27-33.19L312.27-33.19Q314.22-32.59 315.89-31.27L315.89-31.27L315.89-31.27Q317.56-29.94 318.69-27.80L318.69-27.80L318.69-27.80Q319.81-25.66 319.81-22.59ZM356.97-33.78L365.59-33.78L365.59-33.78Q364.22-29.50 362.38-25.34L362.38-25.34L362.38-25.34Q360.53-21.19 358.14-17.42L358.14-17.42L358.14-17.42Q355.75-13.66 352.80-10.45L352.80-10.45L352.80-10.45Q349.84-7.25 346.27-4.92L346.27-4.92L346.27-4.92Q342.69-2.59 338.48-1.27L338.48-1.27L338.48-1.27Q334.28 0.06 329.38 0.06L329.38 0.06L329.38 0.06Q328.53 0.06 327.78-0.25L327.78-0.25L327.78-0.25Q327.03-0.56 326.47-1.11L326.47-1.11L326.47-1.11Q325.91-1.66 325.59-2.39L325.59-2.39L325.59-2.39Q325.28-3.13 325.28-3.97L325.28-3.97L325.28-33.78L333.41-33.78L333.41-8.38L333.41-8.38Q336.38-8.38 339.11-9.66L339.11-9.66L339.11-9.66Q341.84-10.94 344.28-13.05L344.28-13.05L344.28-13.05Q346.72-15.16 348.80-17.84L348.80-17.84L348.80-17.84Q350.88-20.53 352.50-23.36L352.50-23.36L352.50-23.36Q354.13-26.19 355.27-28.91L355.27-28.91L355.27-28.91Q356.41-31.63 356.97-33.78L356.97-33.78Z" fill="#ffd5fb"></path></g></g><style>text {
  font-size: 64px;
  font-family: Arial Black;
  dominant-baseline: central;
  text-anchor: middle;
}</style></svg>